<!-- Copyright (c) 2026 CaYaDev (https://cayadev.com) | GitHub: CaYatur (https://github.com/CaYatur) | Licensed under the MIT License. -->
<svg xmlns="http://www.w3.org/2000/svg" viewBox="0 0 24 24"><path fill="none" stroke="#9DB0C8" stroke-width="1.8" stroke-linecap="round" stroke-linejoin="round" d="M9.8 3.2 10.5 1h3l.7 2.2 2 .8 2.1-1 2.1 2.1-1 2.1.8 2 2.2.7v3l-2.2.7-.8 2 1 2.1-2.1 2.1-2.1-1-2 .8-.7 2.2h-3l-.7-2.2-2-.8-2.1 1-2.1-2.1 1-2.1-.8-2L1.5 13v-3l2.2-.7.8-2-1-2.1L5.6 3l2.1 1 2.1-.8Z"/><circle cx="12" cy="11.5" r="3.2" fill="none" stroke="#51DEC1" stroke-width="1.8"/></svg>
